<?xml version="1.0" encoding="UTF-8"?>
<svg id="Layer_1" data-name="Layer 1" xmlns="http://www.w3.org/2000/svg" viewBox="0 0 270 270">
  <defs>
    <style>
      .cls-1 {
        fill: #fff;
        stroke-width: 0px;
      }
    </style>
  </defs>
  <path class="cls-1" d="m53.51,129.84h-22.28c-.57,0-1.04.47-1.04,1.04v10.89c0,.57.47,1.04,1.04,1.04h8.69v13.53s-1.95.67-7.35.67c-6.37,0-15.26-2.33-15.26-21.88s9.26-22.13,17.95-22.13c7.52,0,10.77,1.32,12.83,1.96.65.2,1.25-.45,1.25-1.02l2.49-10.52c0-.27-.09-.59-.4-.81-.84-.6-5.95-3.46-18.86-3.46-14.87,0-30.13,6.33-30.13,36.74s17.47,34.95,32.18,34.95c12.19,0,19.58-5.21,19.58-5.21.3-.17.34-.59.34-.79v-33.97c0-.57-.47-1.04-1.04-1.04Z"/>
  <path class="cls-1" d="m168.32,102.8c0-.58-.46-1.05-1.03-1.05h-12.54c-.57,0-1.04.47-1.04,1.05,0,0,0,24.24,0,24.24h-19.55v-24.24c0-.58-.46-1.05-1.04-1.05h-12.54c-.57,0-1.04.47-1.04,1.05v65.64c0,.58.47,1.05,1.04,1.05h12.54c.57,0,1.04-.47,1.04-1.05v-28.08h19.55s-.03,28.07-.03,28.08c0,.58.47,1.05,1.04,1.05h12.57c.57,0,1.03-.47,1.04-1.05v-65.64Z"/>
  <g>
    <path class="cls-1" d="m77.18,111.41c0-4.52-3.62-8.17-8.09-8.17s-8.09,3.65-8.09,8.17,3.62,8.17,8.09,8.17,8.09-3.66,8.09-8.17Z"/>
    <path class="cls-1" d="m76.28,154.59v-30.3c0-.58-.46-1.05-1.04-1.05h-12.5c-.57,0-1.09.59-1.09,1.17v43.41c0,1.28.8,1.65,1.82,1.65h11.27c1.24,0,1.54-.61,1.54-1.68v-13.21Z"/>
  </g>
  <path class="cls-1" d="m215.99,123.34h-12.45c-.57,0-1.04.47-1.04,1.05v32.18s-3.16,2.31-7.65,2.31-5.68-2.04-5.68-6.43v-28.07c0-.58-.46-1.05-1.04-1.05h-12.63c-.57,0-1.04.47-1.04,1.05v30.19c0,13.05,7.28,16.25,17.28,16.25,8.21,0,14.83-4.54,14.83-4.54,0,0,.32,2.39.46,2.67.14.28.51.57.92.57l8.04-.04c.57,0,1.04-.47,1.04-1.05v-44.06c0-.58-.47-1.05-1.04-1.05Z"/>
  <path class="cls-1" d="m250.01,121.87c-7.07,0-11.88,3.15-11.88,3.15v-22.23c0-.58-.46-1.05-1.04-1.05h-12.58c-.57,0-1.04.47-1.04,1.05v65.64c0,.58.46,1.05,1.04,1.05h8.73c.39,0,.69-.2.91-.56.22-.35.53-3.03.53-3.03,0,0,5.14,4.87,14.88,4.87,11.43,0,17.99-5.8,17.99-26.03s-10.47-22.88-17.55-22.88Zm-4.91,36.98c-4.32-.13-7.25-2.09-7.25-2.09v-20.79s2.89-1.77,6.43-2.09c4.48-.4,8.8.95,8.8,11.65,0,11.28-1.95,13.5-7.99,13.32Z"/>
  <path class="cls-1" d="m112.33,123.24h-9.41s-.01-12.43-.01-12.43c0-.47-.24-.71-.79-.71h-12.82c-.5,0-.77.22-.77.7v12.85s-6.43,1.55-6.86,1.68c-.43.13-.75.52-.75,1v8.07c0,.58.46,1.05,1.04,1.05h6.57v19.42c0,14.42,10.12,15.84,16.94,15.84,3.12,0,6.85-1,7.47-1.23.37-.14.59-.52.59-.94v-8.88c.01-.58-.48-1.05-1.03-1.05s-1.95.22-3.4.22c-4.62,0-6.19-2.15-6.19-4.93s0-18.45,0-18.45h9.41c.57,0,1.04-.47,1.04-1.05v-10.11c0-.58-.46-1.05-1.04-1.05Z"/>
</svg>